<svg style="position: absolute; width: 0; height: 0; overflow: hidden;" version="1.1" xmlns="http://www.w3.org/2000/svg" xmlns:xlink="http://www.w3.org/1999/xlink">
<defs>
<symbol id="icon-i38" viewBox="0 0 26 26">
<title>i38</title>
<path d="M20.117 5.85h0.033c1.95 1.994 2.925 4.376 2.925 7.15s-0.986 5.146-2.958 7.117-4.344 2.957-7.117 2.957c-2.751 0-5.124-0.975-7.117-2.925v-0.032c-1.971-1.971-2.958-4.344-2.958-7.118s0.986-5.156 2.958-7.15c1.994-1.95 4.366-2.925 7.117-2.925 2.774 0 5.146 0.975 7.117 2.925zM21.125 13c0-2.231-0.791-4.149-2.373-5.753v-0.032c-1.603-1.56-3.52-2.34-5.752-2.34-2.21 0-4.116 0.78-5.72 2.34l-0.032 0.032c-1.56 1.604-2.34 3.521-2.34 5.753s0.78 4.15 2.34 5.752h0.032c1.603 1.582 3.51 2.373 5.72 2.373 2.254 0 4.171-0.791 5.753-2.373s2.373-3.499 2.373-5.752z"></path>
<path d="M17.485 9.815c0 0.086-0.033 0.162-0.098 0.228l-2.99 2.99 2.99 2.991c0.065 0.065 0.098 0.14 0.098 0.228s-0.033 0.162-0.098 0.227l-0.91 0.91c-0.065 0.065-0.14 0.098-0.228 0.098s-0.162-0.033-0.227-0.098l-2.991-2.99-2.99 2.99c-0.065 0.065-0.141 0.098-0.227 0.098s-0.162-0.033-0.227-0.098l-0.942-0.943c-0.065-0.065-0.098-0.141-0.098-0.227s0.032-0.163 0.098-0.228l2.99-2.99-2.99-2.99c-0.065-0.065-0.098-0.141-0.098-0.227s0.032-0.162 0.098-0.227l0.91-0.91c0.065-0.065 0.14-0.097 0.227-0.097s0.162 0.032 0.228 0.097l2.99 2.99 2.99-2.99c0.066-0.065 0.141-0.097 0.228-0.097s0.162 0.032 0.227 0.097l0.943 0.943c0.064 0.066 0.097 0.142 0.097 0.228z"></path>
</symbol>
<symbol id="icon-i1c" viewBox="0 0 26 26">
<title>i1c</title>
<path d="M18.2 3.9c2.602 0 3.902 1.289 3.9 3.867v4.583h-1.3v-4.583c-0.002-1.711-0.869-2.567-2.6-2.567h-4.55v-1.3h4.55zM13.65 12.35h3.9v1.3h-3.9v3.9h-1.3v-3.9h-3.9v-1.3h3.9v-3.9h1.3v3.9zM22.1 13.65v4.55c0 2.6-1.3 3.9-3.9 3.9h-4.55v-1.3h4.55c1.734 0 2.6-0.866 2.6-2.6v-4.55h1.3zM12.35 5.2h-4.55c-1.732 0-2.598 0.856-2.6 2.567v4.582h-1.3v-4.583c-0.002-2.579 1.298-3.868 3.9-3.868h4.55v1.3zM5.2 13.65v4.55c0 1.734 0.866 2.6 2.6 2.6h4.55v1.3h-4.55c-2.6 0-3.9-1.3-3.9-3.9v-4.55h1.3z"></path>
</symbol>
</defs>
</svg>
